<?xml version="1.0" encoding="UTF-8" standalone="no"?><!DOCTYPE svg PUBLIC "-//W3C//DTD SVG 1.1//EN" "http://www.w3.org/Graphics/SVG/1.1/DTD/svg11.dtd"><svg width="100%" height="100%" viewBox="0 0 1200 630" version="1.1" xmlns="http://www.w3.org/2000/svg" xmlns:xlink="http://www.w3.org/1999/xlink" xml:space="preserve" xmlns:serif="http://www.serif.com/" style="fill-rule:evenodd;clip-rule:evenodd;stroke-linejoin:round;stroke-miterlimit:2;"><g><rect x="0" y="0" width="1200" height="630" style="fill:none;"/><g><g><path d="M268.124,175.529l-0,278.943l111.576,0l-0,-55.784l-55.791,-0l0,-167.374l167.374,0l-0,55.791l-111.583,0l0,167.367l55.784,0l0,-111.583l111.583,-0l0,-167.36l-278.943,-0Z" style="fill:#32ff32;"/><rect x="491.282" y="398.687" width="55.784" height="55.784" style="fill:#32ff32;"/></g><g transform="matrix(0.461136,0,0,0.461136,476.724325,-2308.989945)"><text x="304.655px" y="5558.473px" style="font-family:'SpaceMono-Bold', 'Space Mono', monospace;font-weight:700;font-size:243.79px;fill:#32ff32;">L<tspan x="441.665px 578.675px 715.685px 852.694px " y="5558.473px 5558.473px 5558.473px 5558.473px ">UMEN</tspan></text><text x="304.655px" y="5775.598px" style="font-family:'SpaceMono-Bold', 'Space Mono', monospace;font-weight:700;font-size:243.79px;fill:#32ff32;">A<tspan x="441.665px 578.675px " y="5775.598px 5775.598px ">ND</tspan></text><g transform="matrix(243.789592,0,0,243.789592,1001.893502,5992.72323)"></g><text x="304.655px" y="5992.723px" style="font-family:'SpaceMono-Bold', 'Space Mono', monospace;font-weight:700;font-size:243.79px;fill:#32ff32;">P<tspan x="441.665px 578.675px 715.685px 852.694px " y="5992.723px 5992.723px 5992.723px 5992.723px ">IXEL</tspan></text></g></g></g></svg>